<?xml version="1.0" encoding="UTF-8"?>
<svg version="1.1" xmlns="http://www.w3.org/2000/svg" width="1024" height="1024">
<path d="M0 0 C337.92 0 675.84 0 1024 0 C1024 337.92 1024 675.84 1024 1024 C686.08 1024 348.16 1024 0 1024 C0 686.08 0 348.16 0 0 Z " fill="#0A8CCE" transform="translate(0,0)"/>
<path d="M0 0 C4.81906009 -0.09860609 9.6373497 -0.16109486 14.45721436 -0.2064209 C15.72887451 -0.22785156 17.00053467 -0.24928223 18.31072998 -0.2713623 C19.49473389 -0.27571289 20.67873779 -0.28006348 21.89862061 -0.2845459 C22.93833008 -0.2938916 23.97803955 -0.3032373 25.04925537 -0.31286621 C29.62258384 0.26002607 32.15118343 2.19678 35.14471436 5.6060791 C38.04579616 9.64687161 38.22845479 12.03747257 37.89471436 17.0435791 C36.12904088 21.78301844 34.00702301 24.1706469 29.89471436 27.0435791 C17.62864195 31.01814092 2.81432647 29.4482796 -9.90899658 29.57531738 C-13.0084256 29.6093507 -16.10756897 29.65436428 -19.20684814 29.6998291 C-20.13735992 29.7051062 -21.0678717 29.7103833 -22.02658081 29.71582031 C-43.51968348 30.03681791 -61.97294586 37.73528187 -77.10528564 53.0435791 C-88.03989448 64.87981358 -93.70790689 79.0781275 -93.54278564 95.1685791 C-93.53883789 96.16687744 -93.53489014 97.16517578 -93.53082275 98.19372559 C-93.38558626 105.76364611 -92.23305389 112.52845779 -90.07794189 119.76623535 C-89.15899705 122.8625997 -88.6058292 125.85807425 -88.10528564 129.0435791 C-87.54134975 129.03989193 -86.97741386 129.03620476 -86.39638901 129.03240585 C-72.57812363 128.9434829 -58.75990941 128.8778513 -44.94141769 128.83633041 C-38.25845915 128.81583713 -31.57573233 128.78745976 -24.8928833 128.74182129 C-18.42836749 128.69795649 -11.96405058 128.67435714 -5.49939728 128.66407013 C-3.04857508 128.65675103 -0.5977622 128.64246167 1.85297394 128.62065887 C32.80171284 128.35659261 59.10320671 133.75961906 82.00799561 156.00061035 C95.75284527 170.03976258 106.95567355 190.86928177 107.04188538 210.73823547 C107.05261833 212.44297028 107.05261833 212.44297028 107.06356812 214.18214417 C107.06625702 215.42008224 107.06894592 216.65802032 107.07171631 217.93347168 C107.07828751 219.2447403 107.0848587 220.55600891 107.09162903 221.90701294 C107.11261476 226.25069976 107.12303278 230.59438667 107.13299561 234.93811035 C107.13704653 236.44003505 107.14116355 237.94195956 107.14534569 239.4438839 C107.16439279 246.50893718 107.1786195 253.57398011 107.18695766 260.63905412 C107.19670001 268.75747044 107.22294244 276.87561194 107.26345855 284.99393159 C107.29378886 291.2906232 107.30844279 297.58723686 107.31173867 303.884 C107.3140718 307.63375202 107.32280081 311.38321036 107.34819984 315.13288307 C107.57725732 350.7800716 107.57725732 350.7800716 99.14471436 366.3560791 C98.80037354 367.01430664 98.45603271 367.67253418 98.10125732 368.35070801 C86.49291166 389.98900218 68.0171592 404.54916869 44.82049561 412.0357666 C35.56579121 414.6871826 27.02104098 415.17515237 17.43280029 415.1060791 C14.86043383 415.09663748 12.28806642 415.08745347 9.71569824 415.07849121 C8.34398126 415.07216799 6.97226445 415.06580961 5.60054779 415.05941772 C1.33752074 415.04137012 -2.92541726 415.03950399 -7.18847656 415.04187012 C-7.9101455 415.04223927 -8.63181445 415.04260843 -9.37535214 415.04298878 C-12.34909365 415.04475231 -15.32283479 415.04696209 -18.29657602 415.04913521 C-26.71303454 415.05438444 -35.1289133 415.04469284 -43.54522705 414.99230957 C-50.24697332 414.95071048 -56.94792184 414.9411703 -63.64975333 414.96842003 C-67.18909518 414.98160502 -70.72678171 414.97904746 -74.26593781 414.93737793 C-78.21985517 414.89121517 -82.1716866 414.91595916 -86.12579346 414.94592285 C-87.85934334 414.90905617 -87.85934334 414.90905617 -89.62791443 414.8714447 C-98.88529115 415.03564277 -103.61069629 418.70139271 -110.10528564 425.0435791 C-111.20741703 426.03542869 -112.31120999 427.02544029 -113.41778564 428.0123291 C-114.74809814 429.26529785 -114.74809814 429.26529785 -116.10528564 430.5435791 C-120.71150172 434.83705062 -125.4834665 438.84796857 -130.39044189 442.79748535 C-133.2120206 445.131885 -135.91119276 447.56348509 -138.60528564 450.0435791 C-142.16198809 453.31776333 -145.77690375 456.45000343 -149.54278564 459.4810791 C-153.5850876 462.73913988 -157.43354854 466.13322904 -161.23028564 469.6685791 C-176.46461781 483.8014573 -176.46461781 483.8014573 -183.35137939 484.1607666 C-188.57008946 483.58401077 -192.00995923 482.56746462 -196.10528564 479.0435791 C-200.18555642 473.75025485 -201.2072337 470.00573132 -201.31060791 463.44885254 C-201.34052574 461.76756256 -201.34052574 461.76756256 -201.37104797 460.05230713 C-201.39611671 458.24587738 -201.39611671 458.24587738 -201.42169189 456.4029541 C-201.44247299 455.16563538 -201.46325409 453.92831665 -201.48466492 452.65350342 C-201.53894437 449.3721922 -201.58920343 446.09085177 -201.63751221 442.80944824 C-201.68784657 439.45774806 -201.74354925 436.1061419 -201.79864502 432.7545166 C-201.90573074 426.18427446 -202.00751601 419.61396612 -202.10528564 413.0435791 C-203.60986328 412.26325317 -203.60986328 412.26325317 -205.14483643 411.46716309 C-206.48856636 410.76243835 -207.83214556 410.05742616 -209.17559814 409.35217285 C-210.16233521 408.84188538 -210.16233521 408.84188538 -211.16900635 408.32128906 C-232.11533698 397.28096156 -248.06579679 378.82019509 -255.32403564 356.2545166 C-256.3073021 352.86224733 -257.23507928 349.46639079 -258.10528564 346.0435791 C-258.28309948 345.43625128 -258.46091331 344.82892345 -258.64411545 344.20319176 C-259.20247878 341.58843363 -259.23761726 339.16844279 -259.24572754 336.49368286 C-259.25143768 335.36409149 -259.25714783 334.23450012 -259.26303101 333.07067871 C-259.26414886 331.835354 -259.26526672 330.6000293 -259.26641846 329.32727051 C-259.27138336 328.0226889 -259.27634827 326.7181073 -259.28146362 325.37399292 C-259.29457123 321.79489201 -259.30103054 318.21580986 -259.30547428 314.63668871 C-259.30841047 312.39527544 -259.31251652 310.15386723 -259.31697845 307.91245651 C-259.33065527 300.88477625 -259.3403184 293.85710761 -259.34418035 286.82941496 C-259.34864772 278.74610874 -259.36613305 270.66297274 -259.39518094 262.57971823 C-259.41690158 256.31534826 -259.42689029 250.05102577 -259.42822146 243.78661859 C-259.42926302 240.05374052 -259.43502959 236.3210224 -259.45304108 232.58818436 C-259.46970006 229.06687561 -259.47159245 225.54584389 -259.46290207 222.02450943 C-259.46178231 220.14024056 -259.47536528 218.25598015 -259.48965454 216.37176514 C-259.37686286 192.92312968 -250.32156178 172.7647576 -234.10528564 156.0435791 C-233.56645752 155.43127441 -233.02762939 154.81896973 -232.47247314 154.18811035 C-219.05361357 139.4543374 -196.57885498 130.67319799 -177.10528564 129.0435791 C-172.54231716 128.91038633 -167.98236156 128.92706446 -163.41778564 128.94592285 C-162.11953857 128.9473378 -160.8212915 128.94875275 -159.48370361 128.95021057 C-156.05771912 128.95400085 -152.63177806 128.96380071 -149.20581055 128.97491455 C-145.69965197 128.98520431 -142.19348627 128.98972429 -138.68731689 128.99475098 C-131.82662215 129.00542664 -124.96595599 129.02246036 -118.10528564 129.0435791 C-118.38243408 127.96979004 -118.65958252 126.89600098 -118.94512939 125.78967285 C-119.3112066 124.35352381 -119.67708122 122.91732312 -120.04278564 121.4810791 C-120.22518799 120.77660645 -120.40759033 120.07213379 -120.59552002 119.34631348 C-126.58260468 95.72454309 -123.13312298 69.83033076 -110.86309814 48.72717285 C-95.7414941 25.64152401 -73.38748487 8.8946385 -46.10528564 3.0435791 C-36.78355525 1.38868713 -27.56001456 0.66069764 -18.10528564 0.4185791 C-16.83306152 0.38280762 -15.5608374 0.34703613 -14.25006104 0.31018066 C-9.50030098 0.18795168 -4.75027395 0.09832997 0 0 Z " fill="#F7FAF5" transform="translate(436.10528564453125,240.9564208984375)"/>
<path d="M0 0 C0.84154633 0.11231964 1.68309265 0.22463928 2.55014038 0.34036255 C45.59582908 6.13104902 89.3888038 20.95820964 117.05151367 56.43212891 C138.91635812 85.16684303 147.54560667 118.2417657 142.78686523 154.19116211 C137.87610482 184.88770431 121.24433496 212.95512406 96.3125 231.5 C69.89657322 250.42524486 40.81336321 257.91090329 8.61401367 259.09936523 C-9.60539271 259.81653956 -28.90675669 264.27742445 -42.41015625 277.41796875 C-51.45787916 288.10439292 -57.04043447 298.91092271 -56.9375 313.125 C-56.93177979 314.04708252 -56.92605957 314.96916504 -56.92016602 315.91918945 C-56.72447208 323.4115657 -55.33346166 329.32906885 -51.4375 335.8125 C-50.90640625 336.71355469 -50.3753125 337.61460937 -49.828125 338.54296875 C-42.54144261 349.85738154 -29.76878517 357.45728673 -16.69677734 360.45458984 C-12.07846656 361.18621332 -7.41637827 361.16208429 -2.75 361.25 C25.51909125 362.12308025 53.13045484 366.98700368 74.5625 386.8125 C75.33980469 387.49828125 76.11710937 388.1840625 76.91796875 388.890625 C93.76226664 404.54625471 102.98920151 428.49562613 103.93359375 451.15234375 C104.32221885 472.08932447 100.98218776 490.09625764 91.5625 508.8125 C91.06363281 509.84375 90.56476563 510.875 90.05078125 511.9375 C78.87322164 533.11010661 57.11133406 548.57562284 34.5625 555.6875 C31.90915797 556.45439895 29.24182949 557.14300271 26.5625 557.8125 C25.37914062 558.13089844 24.19578125 558.44929687 22.9765625 558.77734375 C-21.96752872 568.83184663 -66.34962158 552.72852391 -107.171875 535.3815918 C-151.31659656 516.63906672 -203.42743682 497.04444247 -250.96875 515.30859375 C-274.75987104 525.62343789 -293.07432249 541.37583952 -303.53710938 565.46582031 C-307.30371492 575.28268922 -309.16096533 585.90480473 -310.375 596.3125 C-310.89926039 599.95398431 -311.30823745 602.46644204 -313.9375 605.125 C-318.60640264 607.37607806 -322.34644718 607.70653854 -327.4375 606.8125 C-331.91785444 604.61305327 -334.30062614 602.31118182 -336.4375 597.8125 C-342.05263155 580.4925872 -334.25435915 559.17229344 -326.49755859 543.81347656 C-321.69923529 534.75611641 -315.49772056 527.18175379 -308.4375 519.8125 C-307.71304687 519.01328125 -306.98859375 518.2140625 -306.2421875 517.390625 C-294.81285257 505.22516341 -280.59152896 496.54987744 -265.4375 489.8125 C-263.8596875 489.09126953 -263.8596875 489.09126953 -262.25 488.35546875 C-212.14894958 467.20311201 -152.95424462 484.51432997 -105.4375 503.8125 C-99.82872875 506.11816177 -94.22972865 508.44704793 -88.63143921 510.77801514 C-50.39003347 526.68929414 -8.35836606 541.07363187 32.39453125 525.17578125 C50.73106127 517.2849687 62.93244248 504.57842468 70.5 486.1875 C77.25642475 466.82684839 76.34212225 446.11928875 67.87695312 427.50976562 C60.26840867 411.77357524 48.18574356 401.24900691 31.765625 395.42578125 C20.98114235 391.8963142 10.63487366 391.23743949 -0.65234375 390.9765625 C-25.86710741 390.38911436 -49.23129056 383.57941038 -67.0859375 365.06640625 C-82.80646335 347.2922982 -87.58138291 325.75595456 -86.6640625 302.63183594 C-85.03101132 282.31020335 -72.41466838 264.83431584 -57.4375 251.8125 C-37.22722854 236.70433139 -13.72473127 230.52645879 11.23852539 229.1809082 C34.6670258 227.90580583 59.32904204 223.1104672 78.5625 208.8125 C79.48417969 208.13445312 80.40585937 207.45640625 81.35546875 206.7578125 C100.9559925 191.56402719 110.68780539 170.01577329 114.12109375 145.88671875 C117.12066542 120.45728715 109.7460709 94.52690602 93.921875 74.3984375 C65.8522487 39.76406074 23.19165258 32.29786734 -18.88232422 27.24365234 C-32.90665461 25.47313233 -32.90665461 25.47313233 -37.875 20.25 C-39.98245722 15.61359411 -40.6122778 11.81106436 -39.4375 6.8125 C-30.56101623 -7.27459502 -14.19017406 -1.92096489 0 0 Z " fill="#F5F9F5" transform="translate(686.4375,280.1875)"/>
<path d="M0 0 C2.69990662 1.79993774 4.5418865 3.083773 6 6 C6.52744326 13.49371916 4.97504874 19.38384631 2.59765625 26.453125 C2.06741348 28.08279709 2.06741348 28.08279709 1.52645874 29.74539185 C0.77219197 32.05845325 0.01198701 34.36958546 -0.75369263 36.67889404 C-1.94364478 40.2685365 -3.11752702 43.86306666 -4.28686523 47.45947266 C-5.82105395 52.17492367 -7.36032453 56.88864937 -8.90527344 61.60058594 C-11.49780292 69.51294976 -14.05630342 77.43489175 -16.5625 85.375 C-16.92529053 86.49293945 -17.28808105 87.61087891 -17.66186523 88.76269531 C-17.98098877 89.77686523 -18.3001123 90.79103516 -18.62890625 91.8359375 C-18.89775635 92.67688965 -19.16660645 93.5178418 -19.44360352 94.38427734 C-20.13403309 97.63011432 -20.08922525 100.69180218 -20 104 C-19.00188042 104.00879936 -19.00188042 104.00879936 -17.9835968 104.01777649 C-11.05657423 104.08172096 -4.13001579 104.16614391 2.79663086 104.26245117 C5.38152954 104.29570111 7.96650084 104.32373277 10.55151367 104.34643555 C14.26773009 104.37997927 17.98328101 104.43229728 21.69921875 104.48828125 C22.85459641 104.49467117 24.00997406 104.5010611 25.20036316 104.50764465 C26.28110611 104.52743881 27.36184906 104.54723297 28.4753418 104.56762695 C29.42354294 104.57873001 30.37174408 104.58983307 31.34867859 104.60127258 C35.28227991 105.19283975 37.9114483 107.05658853 40.875 109.625 C42.28604488 112.60387252 42.50369797 115.05830488 42.02734375 118.3125 C39.90078667 123.87550863 35.35756472 128.13468001 31.38085938 132.47021484 C29.55549751 134.49244212 27.86751592 136.6061536 26.1875 138.75 C20.76715218 145.58677616 15.18423946 152.29053101 9.63183594 159.02001953 C6.074784 163.33595179 2.53832761 167.66871385 -1 172 C-2.49985696 173.83345036 -3.9998594 175.66678171 -5.5 177.5 C-6.2425 178.4075 -6.985 179.315 -7.75 180.25 C-14.5 188.5 -14.5 188.5 -16.76953125 191.2734375 C-18.20499935 193.02817784 -19.63993796 194.78335155 -21.07421875 196.5390625 C-25.70323837 202.20340813 -30.34818313 207.85436902 -35 213.5 C-41.95868546 221.94641077 -48.89779283 230.40812182 -55.796875 238.90332031 C-56.92524313 240.29242947 -58.05414279 241.68110706 -59.18359375 243.06933594 C-61.69680654 246.15898728 -64.20534518 249.25172534 -66.69140625 252.36328125 C-67.47386719 253.33652344 -68.25632812 254.30976563 -69.0625 255.3125 C-69.73410156 256.15425781 -70.40570312 256.99601562 -71.09765625 257.86328125 C-74.12161679 261.25980366 -75.92373008 262.86546626 -80.5 263.4375 C-84 263 -84 263 -86.375 261.5 C-88.93194966 257.5662313 -89.38311767 253.35768468 -88.64019775 248.78579712 C-88.02568754 246.36606163 -87.31981902 243.99466046 -86.5703125 241.61328125 C-86.3045491 240.72586243 -86.03878571 239.8384436 -85.76496887 238.9241333 C-84.89982058 236.04885241 -84.01280306 233.18085796 -83.125 230.3125 C-82.52288448 228.3277821 -81.92206213 226.34267143 -81.32250977 224.35717773 C-79.83914862 219.45939193 -78.33755995 214.56746458 -76.8270874 209.67797852 C-76.06925132 207.22422483 -75.31436776 204.7695925 -74.56103516 202.31445312 C-72.69202511 196.22634515 -70.81003504 190.14252995 -68.90234375 184.06640625 C-68.59280762 183.07398926 -68.28327148 182.08157227 -67.96435547 181.05908203 C-67.27866777 178.88397648 -66.57820159 176.71350574 -65.86767578 174.54638672 C-65.50013184 173.40572754 -65.13258789 172.26506836 -64.75390625 171.08984375 C-64.41818604 170.06624756 -64.08246582 169.04265137 -63.73657227 167.98803711 C-62.97039817 164.87991488 -62.86658157 162.18807636 -63 159 C-65.47723372 157.76138314 -67.15007339 157.86219104 -69.92114258 157.84228516 C-70.94593216 157.83202301 -71.97072174 157.82176086 -73.02656555 157.81118774 C-74.13799423 157.80388641 -75.24942291 157.79658508 -76.39453125 157.7890625 C-78.73503302 157.7609929 -81.07552772 157.73232843 -83.41601562 157.703125 C-87.11596472 157.66185341 -90.81578193 157.62497663 -94.51586914 157.59863281 C-98.0798694 157.57103994 -101.6432639 157.52516454 -105.20703125 157.4765625 C-106.31238724 157.47330963 -107.41774323 157.47005676 -108.55659485 157.46670532 C-109.59084091 157.45013885 -110.62508698 157.43357239 -111.69067383 157.41650391 C-113.05063225 157.40437363 -113.05063225 157.40437363 -114.43806458 157.39199829 C-117.55456481 156.91514678 -119.45129635 155.82878116 -122 154 C-124.29818322 150.06025733 -124.60818154 146.48533888 -124 142 C-122.3849301 139.01376872 -120.21082253 136.56370382 -118 134 C-117.1646875 133.00613281 -116.329375 132.01226562 -115.46875 130.98828125 C-113.58236421 128.74556691 -111.68677753 126.51105689 -109.78515625 124.28125 C-104.73195606 118.34481584 -99.84034439 112.2754719 -94.9375 106.21484375 C-89.74494037 99.80132464 -84.53775554 93.40798092 -79.1875 87.125 C-75.45351534 82.73981582 -71.80182027 78.30160195 -68.22265625 73.7890625 C-65.35853172 70.19506441 -62.46170086 66.62822672 -59.5625 63.0625 C-58.9967627 62.36664795 -58.43102539 61.6707959 -57.84814453 60.95385742 C-54.02755594 56.25741797 -50.1957965 51.57023332 -46.359375 46.88671875 C-43.48293326 43.3673637 -40.61594595 39.84040337 -37.75 36.3125 C-37.20118164 35.63751465 -36.65236328 34.9625293 -36.08691406 34.26708984 C-33.24802416 30.77415005 -30.41544536 27.27637966 -27.59375 23.76953125 C-7.69507868 -0.92340944 -7.69507868 -0.92340944 0 0 Z " fill="#F6FAF5" transform="translate(612,124)"/>
<path d="M0 0 C8.18660047 4.69971508 13.7209398 11.21238332 16.3203125 20.33203125 C17.53445927 30.6289298 16.33326258 38.78256904 10.3203125 47.33203125 C4.71673949 54.07096872 -2.65003382 57.44451015 -11.25390625 58.7109375 C-19.60539524 59.11736789 -27.50103434 55.94297316 -34.08203125 50.87109375 C-41.12700903 44.08448923 -43.62715879 36.46954515 -44.0546875 26.95703125 C-43.85174896 18.32617452 -40.61917458 11.36554125 -34.75 5.08984375 C-24.89127278 -3.2807737 -11.78356092 -5.36133077 0 0 Z " fill="#0C8BCD" transform="translate(435.6796875,487.66796875)"/>
<path d="M0 0 C6.61503904 4.44377623 11.4720979 10.4162937 14 18 C14.87542836 29.71823391 14.49863479 38.4884588 6.625 47.8125 C-1.40714076 54.50595064 -7.79264458 57.64213232 -18.55078125 57.43359375 C-27.62601044 56.29276652 -34.80806646 51.38639603 -40.44140625 44.3359375 C-45.56200878 36.6614505 -46.19684775 28.04065158 -45 19 C-42.06506543 9.86192534 -37.01139562 3.30134022 -28.6171875 -1.30859375 C-18.71832678 -5.79256044 -9.61062893 -4.87725031 0 0 Z " fill="#0C8BCC" transform="translate(310,488)"/>
<path d="M0 0 C7.35063746 -0.05062952 14.70123011 -0.08570377 22.05200195 -0.10986328 C24.55364665 -0.11993288 27.05527955 -0.13358934 29.55688477 -0.15087891 C33.14862986 -0.17508492 36.7402196 -0.18647346 40.33203125 -0.1953125 C42.01496025 -0.21079636 42.01496025 -0.21079636 43.73188782 -0.22659302 C44.77274033 -0.22674408 45.81359283 -0.22689514 46.88598633 -0.22705078 C47.80309891 -0.231492 48.72021149 -0.23593323 49.66511536 -0.24050903 C52 0 52 0 55 2 C54.61020794 8.55925943 53.57886807 13.94526627 51 20 C49.58312881 15.74938644 50.80679961 13.28148375 52 9 C51.34 9 50.68 9 50 9 C50 7.35 50 5.7 50 4 C50.99 3.67 51.98 3.34 53 3 C35.84 2.67 18.68 2.34 1 2 C0.67 1.34 0.34 0.68 0 0 Z " fill="#1F7FB2" transform="translate(495,281)"/>
<path d="M0 0 C1.08788818 -0.00515625 2.17577637 -0.0103125 3.29663086 -0.015625 C11.04846563 0.05314375 11.04846563 0.05314375 14.4375 2.3125 C12.4375 5.3125 12.4375 5.3125 10.58984375 5.859375 C5.02400885 6.36982194 -0.02569447 6.10347222 -5.5625 5.3125 C-5.2325 4.6525 -4.9025 3.9925 -4.5625 3.3125 C-9.44915069 3.23239097 -14.19820131 3.32538405 -19.0625 3.8125 C-23.92679869 4.29961595 -28.67584931 4.39260903 -33.5625 4.3125 C-33.5625 3.9825 -33.5625 3.6525 -33.5625 3.3125 C-22.34995855 1.20779948 -11.42301162 0.01327582 0 0 Z " fill="#E7F5F5" transform="translate(475.5625,759.6875)"/>
<path d="M0 0 C0 0.33 0 0.66 0 1 C-9.47219563 1.66388355 -18.87837872 2.12862891 -28.37670898 1.96289062 C-32.0617857 1.91643069 -35.41761594 2.11134659 -39 3 C-39 3.33 -39 3.66 -39 4 C-43.29 4 -47.58 4 -52 4 C-42.17795934 -5.82204066 -12.42526909 -2.20735439 0 0 Z " fill="#1480BE" transform="translate(496,789)"/>
<path d="M0 0 C17.16 0 34.32 0 52 0 C52.495 1.98 52.495 1.98 53 4 C52.505 3.01 52.505 3.01 52 2 C51.01 2 50.02 2 49 2 C48.67 3.32 48.34 4.64 48 6 C45.525 5.505 45.525 5.505 43 5 C43 4.67 43 4.34 43 4 C44.65 4 46.3 4 48 4 C48 3.34 48 2.68 48 2 C46.67162109 2.00785522 46.67162109 2.00785522 45.31640625 2.01586914 C12.84100109 2.18272378 12.84100109 2.18272378 0 1 C0 0.67 0 0.34 0 0 Z " fill="#0590DB" transform="translate(496,283)"/>
<path d="M0 0 C8.00010373 12.0001556 7.41607762 29.98641693 5 43.625 C4.68385806 45.08715645 4.35830145 46.54759947 4 48 C3.67 48 3.34 48 3 48 C3.01571045 47.0934668 3.0314209 46.18693359 3.04760742 45.25292969 C3.09928972 41.83099439 3.13661492 38.40948459 3.16479492 34.98730469 C3.17971429 33.51718527 3.20005727 32.047109 3.22631836 30.57714844 C3.37186968 22.20937474 3.09597783 14.52560694 0.6496582 6.42675781 C0 4 0 4 0 0 Z " fill="#137FBA" transform="translate(756,711)"/>
<path d="M0 0 C0.66 1.32 1.32 2.64 2 4 C1.01 4.495 1.01 4.495 0 5 C-0.36270588 6.99488234 -0.69169075 8.99598989 -1 11 C-1.62225605 12.68375165 -2.27544365 14.35767228 -3 16 C-2.01 16 -1.02 16 0 16 C0 17.98 0 19.96 0 22 C-0.66 22 -1.32 22 -2 22 C-2 23.65 -2 25.3 -2 27 C-2.66 27 -3.32 27 -4 27 C-6.60262773 23.17260628 -5.81861412 20.41339788 -5 16 C-4.23695992 13.15630774 -3.35151128 10.36085948 -2.4375 7.5625 C-2.20353516 6.83095703 -1.96957031 6.09941406 -1.72851562 5.34570312 C-1.15732778 3.56219821 -0.57936877 1.78086417 0 0 Z " fill="#1684C0" transform="translate(607,170)"/>
<path d="M0 0 C-0.99 0.495 -0.99 0.495 -2 1 C-2 1.66 -2 2.32 -2 3 C-3.02480469 3.26554687 -4.04960937 3.53109375 -5.10546875 3.8046875 C-6.46618989 4.16129028 -7.82686453 4.51807051 -9.1875 4.875 C-10.19780273 5.13603516 -10.19780273 5.13603516 -11.22851562 5.40234375 C-14.17973106 6.17973708 -16.99084475 6.99609274 -19.80078125 8.1953125 C-22 9 -22 9 -25 8 C-18.375 5 -18.375 5 -15 5 C-14.67 4.01 -14.34 3.02 -14 2 C-9.24983365 -0.2012966 -5.11918146 -0.1765235 0 0 Z " fill="#0F82C1" transform="translate(253,369)"/>
<path d="M0 0 C0 0.33 0 0.66 0 1 C-2.64 1 -5.28 1 -8 1 C-8 1.66 -8 2.32 -8 3 C-18.23 2.67 -28.46 2.34 -39 2 C-39 1.67 -39 1.34 -39 1 C-25.99533484 0.39250166 -13.02106078 -0.18780376 0 0 Z " fill="#0B75B0" transform="translate(715,640)"/>
<path d="M0 0 C0.33 0 0.66 0 1 0 C0.67 7.92 0.34 15.84 0 24 C-0.66 24 -1.32 24 -2 24 C-2.05787784 20.37506666 -2.0935542 16.75025143 -2.125 13.125 C-2.14175781 12.09246094 -2.15851562 11.05992187 -2.17578125 9.99609375 C-2.18222656 9.00996094 -2.18867187 8.02382813 -2.1953125 7.0078125 C-2.20578613 6.09660645 -2.21625977 5.18540039 -2.22705078 4.24658203 C-2 2 -2 2 0 0 Z " fill="#FCF7EA" transform="translate(789,725)"/>
<path d="M0 0 C1.134375 0.020625 2.26875 0.04125 3.4375 0.0625 C3.4375 0.7225 3.4375 1.3825 3.4375 2.0625 C8.3875 2.3925 13.3375 2.7225 18.4375 3.0625 C18.4375 3.3925 18.4375 3.7225 18.4375 4.0625 C17.24253906 4.12308594 16.04757812 4.18367187 14.81640625 4.24609375 C3.10221039 4.85465577 3.10221039 4.85465577 -8.5625 6.0625 C-8.2325 5.4025 -7.9025 4.7425 -7.5625 4.0625 C-5.5825 4.0625 -3.6025 4.0625 -1.5625 4.0625 C-1.5625 3.4025 -1.5625 2.7425 -1.5625 2.0625 C-2.5525 1.7325 -3.5425 1.4025 -4.5625 1.0625 C-3.5625 0.0625 -3.5625 0.0625 0 0 Z " fill="#E3F6FA" transform="translate(683.5625,534.9375)"/>
<path d="M0 0 C8.73458083 1.09344976 17.34906408 5.13814924 23 12 C18 10 18 10 13 8 C13 7.34 13 6.68 13 6 C11.68 6 10.36 6 9 6 C8.01 5.67 7.02 5.34 6 5 C5.01 5 4.02 5 3 5 C2.67 4.01 2.34 3.02 2 2 C1.34 1.34 0.68 0.68 0 0 Z " fill="#137FBB" transform="translate(716,675)"/>
<path d="M0 0 C3.83473284 -0.35671933 5.55342875 -0.29771416 8.8125 1.875 C11.11853252 4.11514587 11.95396776 4.97992566 12.09765625 8.1640625 C12.08605469 8.97617188 12.07445312 9.78828125 12.0625 10.625 C12.05347656 11.44226563 12.04445313 12.25953125 12.03515625 13.1015625 C12.02355469 13.72804687 12.01195312 14.35453125 12 15 C11.67 15 11.34 15 11 15 C11 12.36 11 9.72 11 7 C10.113125 6.731875 9.22625 6.46375 8.3125 6.1875 C5.2090334 5.0749365 2.68889315 3.89804222 0 2 C0 1.34 0 0.68 0 0 Z " fill="#E0F2F4" transform="translate(606,124)"/>
<path d="M0 0 C0.66 0.33 1.32 0.66 2 1 C1.36191406 1.54269531 0.72382813 2.08539062 0.06640625 2.64453125 C-0.75988281 3.35996094 -1.58617187 4.07539062 -2.4375 4.8125 C-3.26121094 5.52019531 -4.08492188 6.22789062 -4.93359375 6.95703125 C-7.22164759 8.91109686 -7.22164759 8.91109686 -8 12 C-9.77734375 13.421875 -9.77734375 13.421875 -11.9375 14.75 C-12.64777344 15.19859375 -13.35804688 15.6471875 -14.08984375 16.109375 C-15.03537109 16.55023437 -15.03537109 16.55023437 -16 17 C-16.66 16.67 -17.32 16.34 -18 16 C-15.93942825 14.08122455 -13.87662937 12.16494202 -11.8125 10.25 C-11.23435547 9.71117187 -10.65621094 9.17234375 -10.06054688 8.6171875 C-6.80637122 5.60201909 -3.50844332 2.72218201 0 0 Z " fill="#0D76B4" transform="translate(317,673)"/>
<path d="M0 0 C0.33 0 0.66 0 1 0 C0.67 3.96 0.34 7.92 0 12 C0.33 10.35 0.66 8.7 1 7 C1.66 7 2.32 7 3 7 C3.25 12.625 3.25 12.625 1 16 C0.34 16 -0.32 16 -1 16 C-1 15.34 -1 14.68 -1 14 C-1.66 14 -2.32 14 -3 14 C-2.40380045 9.13103697 -1.43023178 4.67209049 0 0 Z " fill="#1382BE" transform="translate(828,438)"/>
<path d="M0 0 C0.66 0.33 1.32 0.66 2 1 C-1.70626694 8.26319712 -5.77226978 14.73600373 -11 21 C-11 18.66666667 -11 16.33333333 -11 14 C-9.33935415 12.9900331 -7.67175341 11.9914728 -6 11 C-4.13357778 8.31903846 -4.13357778 8.31903846 -2.6875 5.3125 C-2.17574219 4.31863281 -1.66398438 3.32476563 -1.13671875 2.30078125 C-0.76160156 1.54152344 -0.38648438 0.78226563 0 0 Z " fill="#1C80B9" transform="translate(755,768)"/>
<path d="M0 0 C0.66 0 1.32 0 2 0 C2.33 0.33 2.66 0.66 3 1 C3.66 0.67 4.32 0.34 5 0 C5.33 1.32 5.66 2.64 6 4 C7.65 4 9.3 4 11 4 C11 4.66 11 5.32 11 6 C13.31 6 15.62 6 18 6 C17.01 6.495 17.01 6.495 16 7 C16 7.66 16 8.32 16 9 C10.00067626 7.1668733 4.55079437 4.92678249 -1 2 C-0.67 1.34 -0.34 0.68 0 0 Z " fill="#E4F4F5" transform="translate(637,657)"/>
<path d="M0 0 C1.2065625 0.0309375 1.2065625 0.0309375 2.4375 0.0625 C3 2 3 2 3.4375 4.0625 C3.1075 4.3925 2.7775 4.7225 2.4375 5.0625 C0.58203125 4.9765625 0.58203125 4.9765625 -1.75 4.6875 C-2.96042969 4.53861328 -2.96042969 4.53861328 -4.1953125 4.38671875 C-6.99540591 4.00320761 -9.78073034 3.56179199 -12.5625 3.0625 C-12.5625 2.7325 -12.5625 2.4025 -12.5625 2.0625 C-11.60537109 1.97162109 -11.60537109 1.97162109 -10.62890625 1.87890625 C-9.38947266 1.75322266 -9.38947266 1.75322266 -8.125 1.625 C-7.30128906 1.54378906 -6.47757813 1.46257813 -5.62890625 1.37890625 C-2.92478859 0.96485421 -2.90505598 0.07085502 0 0 Z " fill="#0D81C1" transform="translate(720.5625,640.9375)"/>
<path d="M0 0 C0.66 0.33 1.32 0.66 2 1 C1.21625 1.5775 0.4325 2.155 -0.375 2.75 C-2.80047244 4.82897637 -3.85694417 6.09040333 -5 9 C-5.66 9 -6.32 9 -7 9 C-7.33 9.66 -7.66 10.32 -8 11 C-10.64860427 11.59355614 -13.29197322 11.74209269 -16 12 C-13.48068381 9.20740206 -10.62828625 7.40465584 -7.4375 5.4375 C-3.48604104 3.01277951 -3.48604104 3.01277951 0 0 Z " fill="#117AB7" transform="translate(754,817)"/>
<path d="M0 0 C1.0383038 3.1149114 1.79893666 5.7159655 2 9 C0.0625 11.375 0.0625 11.375 -2 13 C-2.99 12.34 -3.98 11.68 -5 11 C-3.35 7.37 -1.7 3.74 0 0 Z " fill="#E2F3F5" transform="translate(187,416)"/>
<path d="M0 0 C8.415 1.98 8.415 1.98 17 4 C17 4.33 17 4.66 17 5 C6.01505646 5.38393977 6.01505646 5.38393977 2 3 C1.34 2.01 0.68 1.02 0 0 Z " fill="#E8F4F4" transform="translate(712,644)"/>
<path d="M0 0 C2 2 2 2 2 5 C2.66 5 3.32 5 4 5 C4.33 4.01 4.66 3.02 5 2 C5.33 2 5.66 2 6 2 C6 3.65 6 5.3 6 7 C5.01 7.495 5.01 7.495 4 8 C4.33 9.051875 4.66 10.10375 5 11.1875 C5.83966782 14.38873357 6.19750904 16.7411008 6 20 C4.14723653 16.60326697 3.00950804 13.13095396 1.875 9.4375 C1.52179687 8.30183594 1.16859375 7.16617187 0.8046875 5.99609375 C0 3 0 3 0 0 Z " fill="#117AB4" transform="translate(537,425)"/>
<path d="M0 0 C0 0.66 0 1.32 0 2 C-3.92857754 3.85131483 -6.98775112 4.22004943 -11.3125 4.125 C-12.38113281 4.10695313 -13.44976563 4.08890625 -14.55078125 4.0703125 C-15.35902344 4.04710937 -16.16726563 4.02390625 -17 4 C-14.19547298 2.48300584 -11.6142698 1.54691437 -8.5 0.875 C-7.7471875 0.70742188 -6.994375 0.53984375 -6.21875 0.3671875 C-4 0 -4 0 0 0 Z " fill="#DFEEF0" transform="translate(679,512)"/>
<path d="M0 0 C0 4.43847002 -1.28370807 6.26485828 -4.375 9.4375 C-5.24125 10.283125 -6.1075 11.12875 -7 12 C-8.35555293 13.64864545 -9.69631653 15.31003995 -11 17 C-11.66 16.67 -12.32 16.34 -13 16 C-11.20994733 13.70705628 -9.41803862 11.41560683 -7.625 9.125 C-7.11710938 8.47402344 -6.60921875 7.82304687 -6.0859375 7.15234375 C-5.59609375 6.52714844 -5.10625 5.90195312 -4.6015625 5.2578125 C-4.15119629 4.6817627 -3.70083008 4.10571289 -3.23681641 3.51220703 C-2 2 -2 2 0 0 Z " fill="#157AB6" transform="translate(594,316)"/>
<path d="M0 0 C-0.33 0.99 -0.66 1.98 -1 3 C-4.96 3 -8.92 3 -13 3 C-12.67 2.01 -12.34 1.02 -12 0 C-3.42857143 -1.28571429 -3.42857143 -1.28571429 0 0 Z " fill="#DEEDEC" transform="translate(702,812)"/>
<path d="M0 0 C0.66 1.32 1.32 2.64 2 4 C2.66 4 3.32 4 4 4 C4.69969682 6.24623699 5.38435043 8.49716414 6.0625 10.75 C6.63677734 12.62945312 6.63677734 12.62945312 7.22265625 14.546875 C7.96515749 17.84522223 7.94299411 18.93306589 7 22 C6.01658385 19.27229834 5.03814947 16.54297895 4.0625 13.8125 C3.78470703 13.04357422 3.50691406 12.27464844 3.22070312 11.48242188 C1.86499768 7.67664634 0.63433732 4.0067636 0 0 Z " fill="#1276B1" transform="translate(819,361)"/>
<path d="M0 0 C1.3274855 3.98245651 -0.00092171 6.44789543 -1.4375 10.1875 C-1.80198242 11.16879883 -1.80198242 11.16879883 -2.17382812 12.16992188 C-2.7743293 13.78303286 -3.38609203 15.3919435 -4 17 C-4.33 17 -4.66 17 -5 17 C-5 13.37 -5 9.74 -5 6 C-4.34 6 -3.68 6 -3 6 C-2.01 4.02 -1.02 2.04 0 0 Z " fill="#127DBA" transform="translate(320,298)"/>
<path d="M0 0 C0.99 0 1.98 0 3 0 C4.1171875 1.609375 4.1171875 1.609375 5 4 C4.3203125 7.015625 4.3203125 7.015625 3.125 10.25 C2.73570312 11.32765625 2.34640625 12.4053125 1.9453125 13.515625 C1.63335938 14.33546875 1.32140625 15.1553125 1 16 C-0.41687119 11.74938644 0.80679961 9.28148375 2 5 C1.34 5 0.68 5 0 5 C0 3.35 0 1.7 0 0 Z " fill="#127FBA" transform="translate(545,285)"/>
<path d="M0 0 C0.99 1.485 0.99 1.485 2 3 C4.05925139 3.72382467 4.05925139 3.72382467 6 4 C6 5.32 6 6.64 6 8 C5.34 8 4.68 8 4 8 C3.67 8.99 3.34 9.98 3 11 C0.84694043 7.14243493 -0.39253254 4.44870215 0 0 Z " fill="#1183C1" transform="translate(393,520)"/>
<path d="M0 0 C0.99 0.2165625 0.99 0.2165625 2 0.4375 C5.65599551 1.12299916 9.30622195 1.56175515 13 2 C13 2.99 13 3.98 13 5 C13.66 5.33 14.32 5.66 15 6 C9.45949887 5.43174347 4.96284034 3.37113483 0 1 C0 0.67 0 0.34 0 0 Z " fill="#117EBB" transform="translate(559,775)"/>
<path d="M0 0 C0.33 0 0.66 0 1 0 C1.16852247 1.60397277 1.33474886 3.2081869 1.5 4.8125 C1.5928125 5.70582031 1.685625 6.59914062 1.78125 7.51953125 C2 10 2 10 2 13 C1.01 13.33 0.02 13.66 -1 14 C-1.66 13.67 -2.32 13.34 -3 13 C-2.690625 12.154375 -2.38125 11.30875 -2.0625 10.4375 C-0.98461179 6.9502146 -0.43418696 3.61822465 0 0 Z " fill="#107CB9" transform="translate(654,235)"/>
<path d="M0 0 C1.01586535 3.04759605 1.00433442 4.45093253 0.625 7.5625 C0.53476562 8.34753906 0.44453125 9.13257813 0.3515625 9.94140625 C0 12 0 12 -1 14 C-1.66 13.67 -2.32 13.34 -3 13 C-3.33 14.32 -3.66 15.64 -4 17 C-5 15 -5 15 -4.00390625 11.5234375 C-3.53099953 10.13802064 -3.05018356 8.75528453 -2.5625 7.375 C-2.31951172 6.66859375 -2.07652344 5.9621875 -1.82617188 5.234375 C-1.22412795 3.48726713 -0.61291983 1.74332214 0 0 Z " fill="#157BB6" transform="translate(600,194)"/>
<path d="M0 0 C0.99 0.66 1.98 1.32 3 2 C1.83857315 6.35535069 0.92300495 8.64619703 -3 11 C-3.33 10.01 -3.66 9.02 -4 8 C-3.34 8 -2.68 8 -2 8 C-1.855625 7.236875 -1.71125 6.47375 -1.5625 5.6875 C-1 3 -1 3 0 0 Z " fill="#E8F2F0" transform="translate(373,875)"/>
<path d="M0 0 C0 0.33 0 0.66 0 1 C-1.01320313 0.96519531 -1.01320313 0.96519531 -2.046875 0.9296875 C-2.93890625 0.91164063 -3.8309375 0.89359375 -4.75 0.875 C-5.63171875 0.85179687 -6.5134375 0.82859375 -7.421875 0.8046875 C-10.1135858 1.00860498 -11.69904974 1.63448279 -14 3 C-14.66 2.34 -15.32 1.68 -16 1 C-11.01547669 -3.46888297 -5.91576863 -1.44009079 0 0 Z " fill="#0E80BD" transform="translate(514,792)"/>
<path d="M0 0 C0.66 0 1.32 0 2 0 C1.01 3.96 0.02 7.92 -1 12 C-1.33 12 -1.66 12 -2 12 C-2 10.35 -2 8.7 -2 7 C-2.66 7 -3.32 7 -4 7 C-4.33 8.32 -4.66 9.64 -5 11 C-5 9.35 -5 7.7 -5 6 C-3.68 5.67 -2.36 5.34 -1 5 C-0.67 3.35 -0.34 1.7 0 0 Z " fill="#E6F6F9" transform="translate(597,197)"/>
<path d="M0 0 C0.33 0.66 0.66 1.32 1 2 C1.66 2.33 2.32 2.66 3 3 C1.02 5.31 -0.96 7.62 -3 10 C-4 8 -4 8 -3.1875 5 C-2 2 -2 2 0 0 Z " fill="#0E82C1" transform="translate(552,182)"/>
<path d="M0 0 C4 3 8 6 12 9 C8.44219804 8.39009109 5.3171411 7.4216319 2 6 C2 5.01 2 4.02 2 3 C1.01 2.67 0.02 2.34 -1 2 C-0.67 1.34 -0.34 0.68 0 0 Z " fill="#E4F4F7" transform="translate(271,534)"/>
<path d="M0 0 C2.625 -0.1875 2.625 -0.1875 5 0 C4.04882866 1.1725131 3.08882991 2.33787015 2.125 3.5 C1.59132812 4.1496875 1.05765625 4.799375 0.5078125 5.46875 C0.01023438 5.9740625 -0.48734375 6.479375 -1 7 C-1.66 7 -2.32 7 -3 7 C-2.38722388 4.03824877 -1.74627478 2.61941217 0 0 Z " fill="#1284C4" transform="translate(205,389)"/>
<path d="M0 0 C0.33 1.32 0.66 2.64 1 4 C0.071875 4.12375 0.071875 4.12375 -0.875 4.25 C-3.15042479 4.79923543 -3.15042479 4.79923543 -4.125 6.875 C-4.41375 7.57625 -4.7025 8.2775 -5 9 C-5.99 10.485 -5.99 10.485 -7 12 C-7.66 11.67 -8.32 11.34 -9 11 C-7.68823998 9.35357683 -6.3755713 7.70787757 -5.0625 6.0625 C-4.33160156 5.14597656 -3.60070312 4.22945313 -2.84765625 3.28515625 C-1 1 -1 1 0 0 Z " fill="#0F7BBC" transform="translate(604,304)"/>
<path d="M0 0 C0.99 0 1.98 0 3 0 C3 0.99 3 1.98 3 3 C0.69 4.32 -1.62 5.64 -4 7 C-4.66 6.34 -5.32 5.68 -6 5 C-5.195625 4.54625 -4.39125 4.0925 -3.5625 3.625 C-0.91143428 2.25274335 -0.91143428 2.25274335 0 0 Z " fill="#EAF4EF" transform="translate(416,801)"/>
<path d="M0 0 C0.66 0.33 1.32 0.66 2 1 C1.67 1.99 1.34 2.98 1 4 C0.34 4 -0.32 4 -1 4 C-1 5.32 -1 6.64 -1 8 C-2.32 8.33 -3.64 8.66 -5 9 C-5 4.61031544 -2.87194899 3.23094261 0 0 Z " fill="#0A81C3" transform="translate(273,711)"/>
<path d="M0 0 C0.99 0.33 1.98 0.66 3 1 C1.9024777 3.99324263 1.32317108 4.84610901 -1.625 6.25 C-2.40875 6.4975 -3.1925 6.745 -4 7 C-3.43628586 3.73045798 -2.50037734 2.17424117 0 0 Z " fill="#0882C7" transform="translate(764,808)"/>
<path d="M0 0 C0.33 0.66 0.66 1.32 1 2 C0.67 2.99 0.34 3.98 0 5 C-3.33333333 5.66666667 -6.66666667 6.33333333 -10 7 C-6.80331012 4.3513141 -3.60513403 2.06007659 0 0 Z " fill="#137FBD" transform="translate(506,640)"/>
<path d="M0 0 C3.09423168 3.09423168 3.93706005 6.5523812 4.125 10.875 C4.08375 11.57625 4.0425 12.2775 4 13 C3.525625 12.505 3.05125 12.01 2.5625 11.5 C1.24076302 9.88457803 1.24076302 9.88457803 0 10 C0 6.7 0 3.4 0 0 Z " fill="#147CB9" transform="translate(795,382)"/>
<path d="M0 0 C2.32590854 3.63423209 2.16265833 6.77088331 2 11 C0.68 10.01 -0.64 9.02 -2 8 C-1.34 5.36 -0.68 2.72 0 0 Z " fill="#E1F4F5" transform="translate(318,306)"/>
<path d="M0 0 C0.66 0.33 1.32 0.66 2 1 C0.625 2.5 0.625 2.5 -1 4 C-1.66 4 -2.32 4 -3 4 C-3 4.99 -3 5.98 -3 7 C-5.375 8.75 -5.375 8.75 -8 10 C-8.66 9.67 -9.32 9.34 -10 9 C-6.7 6.03 -3.4 3.06 0 0 Z " fill="#0F78B7" transform="translate(370,283)"/>
<path d="M0 0 C0.33 0 0.66 0 1 0 C3.27678571 8.03571429 3.27678571 8.03571429 2 12 C1.67 10.35 1.34 8.7 1 7 C0.34 7 -0.32 7 -1 7 C-1.33 7.66 -1.66 8.32 -2 9 C-1.41196203 5.97580475 -0.77321882 2.98241547 0 0 Z " fill="#2183BA" transform="translate(178,587)"/>
<path d="M0 0 C0.99 0.495 0.99 0.495 2 1 C3.14077657 4.42232972 3.09815117 7.08673217 3.0625 10.6875 C3.05347656 11.86699219 3.04445313 13.04648437 3.03515625 14.26171875 C3.02355469 15.16535156 3.01195312 16.06898438 3 17 C2.67 17 2.34 17 2 17 C1.93941406 16.31292969 1.87882812 15.62585938 1.81640625 14.91796875 C1.73261719 14.01691406 1.64882813 13.11585938 1.5625 12.1875 C1.48128906 11.29417969 1.40007812 10.40085937 1.31640625 9.48046875 C1.06510233 6.87256441 1.06510233 6.87256441 0 4 C0 2.68 0 1.36 0 0 Z " fill="#0D73B0" transform="translate(449,504)"/>
<path d="M0 0 C0.99 0.33 1.98 0.66 3 1 C3 1.66 3 2.32 3 3 C3.99 3.33 4.98 3.66 6 4 C4.58376784 4.05447047 3.16691809 4.09300508 1.75 4.125 C0.96109375 4.14820313 0.1721875 4.17140625 -0.640625 4.1953125 C-3.20731941 3.9828378 -4.7916067 3.28654105 -7 2 C-3.535 1.505 -3.535 1.505 0 1 C0 0.67 0 0.34 0 0 Z " fill="#117AB2" transform="translate(688,277)"/>
<path d="M0 0 C0.66 0 1.32 0 2 0 C1.49396008 2.16874252 1.00016187 3.99967627 0 6 C-0.22467831 7.53668865 -0.40796805 9.07968054 -0.5625 10.625 C-0.64628906 11.44226563 -0.73007812 12.25953125 -0.81640625 13.1015625 C-0.87699219 13.72804688 -0.93757813 14.35453125 -1 15 C-1.33 15 -1.66 15 -2 15 C-2.05406122 13.06280622 -2.09282025 11.12518079 -2.125 9.1875 C-2.14820313 8.10855469 -2.17140625 7.02960938 -2.1953125 5.91796875 C-2 3 -2 3 0 0 Z " fill="#0A78B5" transform="translate(489,260)"/>
<path d="M0 0 C2.29013653 3.4352048 2.17842973 4.985331 2 9 C0.02 9.99 0.02 9.99 -2 11 C-1 3.57142857 -1 3.57142857 0 0 Z " fill="#D8F1F2" transform="translate(353,840)"/>
<path d="M0 0 C0.66 0.99 1.32 1.98 2 3 C1.030625 3.61875 0.06125 4.2375 -0.9375 4.875 C-4.02835362 6.65678846 -4.02835362 6.65678846 -5 9 C-5.66 8.67 -6.32 8.34 -7 8 C-4.69 5.36 -2.38 2.72 0 0 Z " fill="#0D7CBD" transform="translate(402,816)"/>
<path d="M0 0 C7.42857143 -0.14285714 7.42857143 -0.14285714 11 1 C11 1.66 11 2.32 11 3 C8.83032311 3.95465783 7.43671207 4.14401212 5.17578125 3.3984375 C3.4315257 2.64129615 1.71372869 1.82390802 0 1 C0 0.67 0 0.34 0 0 Z " fill="#E5F3F1" transform="translate(578,814)"/>
<path d="M0 0 C0.66 0.33 1.32 0.66 2 1 C1 4 1 4 -0.875 5.1875 C-3 6 -3 6 -6 6 C-5 3 -5 3 -2.5625 1.25 C-1.716875 0.8375 -0.87125 0.425 0 0 Z " fill="#0C81C2" transform="translate(422,801)"/>
<path d="M0 0 C0.33 0 0.66 0 1 0 C3.27571116 8.03501094 3.27571116 8.03501094 2.125 12.0625 C1.75375 12.701875 1.3825 13.34125 1 14 C0.67 14 0.34 14 0 14 C0 9.38 0 4.76 0 0 Z " fill="#DEEFF0" transform="translate(761,748)"/>
<path d="M0 0 C2.96865509 2.54456151 4.3619751 5.48994665 6 9 C4.125 8.6875 4.125 8.6875 2 8 C-0.1519437 4.77208445 -0.20086443 3.71599191 0 0 Z " fill="#0D7EBE" transform="translate(609,631)"/>
<path d="M0 0 C0.66 0.99 1.32 1.98 2 3 C1.01 3.495 1.01 3.495 0 4 C-0.72693904 5.97888961 -1.39816251 7.97954558 -2 10 C-2.99 10 -3.98 10 -5 10 C-3.66511872 6.40608886 -2.03977277 3.24509304 0 0 Z " fill="#117FBD" transform="translate(814,475)"/>
<path d="M0 0 C0 4.71428571 0 4.71428571 -1 7 C-4.0625 8.75 -4.0625 8.75 -7 10 C-5.33248852 6.05860922 -2.77289351 3.2107188 0 0 Z " fill="#177FBB" transform="translate(580,333)"/>
<path d="M0 0 C0.33 0 0.66 0 1 0 C1.125 7.75 1.125 7.75 0 10 C-0.66 10 -1.32 10 -2 10 C-2.1953125 3.9453125 -2.1953125 3.9453125 -2 2 C-1.34 1.34 -0.68 0.68 0 0 Z " fill="#E7F0EC" transform="translate(789,725)"/>
<path d="M0 0 C0 0.66 0 1.32 0 2 C-1.6796875 3.32421875 -1.6796875 3.32421875 -3.875 4.6875 C-4.59429687 5.14511719 -5.31359375 5.60273437 -6.0546875 6.07421875 C-7.01761719 6.53248047 -7.01761719 6.53248047 -8 7 C-8.66 6.67 -9.32 6.34 -10 6 C-9.09650406 4.98808455 -8.17659153 3.99081074 -7.25 3 C-6.48429687 2.1646875 -6.48429687 2.1646875 -5.703125 1.3125 C-4 0 -4 0 0 0 Z " fill="#1281C2" transform="translate(309,683)"/>
<path d="M0 0 C4.92127034 -0.16682272 8.50343896 -0.24828052 13 2 C12.67 2.66 12.34 3.32 12 4 C6 2.5 6 2.5 0 1 C0 0.67 0 0.34 0 0 Z " fill="#2891C7" transform="translate(684,539)"/>
<path d="M0 0 C0.66 0 1.32 0 2 0 C1.52797514 4.24822374 -0.96655518 6.19989709 -4 9 C-4.33 7.35 -4.66 5.7 -5 4 C-4.0409375 3.8453125 -4.0409375 3.8453125 -3.0625 3.6875 C-2.381875 3.460625 -1.70125 3.23375 -1 3 C-0.67 2.01 -0.34 1.02 0 0 Z " fill="#1180BF" transform="translate(197,398)"/>
<path d="M0 0 C0.66 0 1.32 0 2 0 C2 1.65 2 3.3 2 5 C-1 6 -1 6 -4 5 C-2.71937515 3.2925002 -1.38232443 1.62626404 0 0 Z " fill="#E6F4F4" transform="translate(525,220)"/>
<path d="M0 0 C0 3.99904969 -1.72586967 5.80200422 -4 9 C-5 7 -5 7 -4.25 3.9375 C-3.8375 2.968125 -3.425 1.99875 -3 1 C-2.01 0.67 -1.02 0.34 0 0 Z " fill="#0B7DBE" transform="translate(614,546)"/>
<path d="M0 0 C3.16115776 1.36983503 3.9927092 1.9890638 6 5 C4.68 5.33 3.36 5.66 2 6 C0 3 0 3 0 0 Z " fill="#E3F1F2" transform="translate(512,393)"/>
<path d="M0 0 C0.66 0 1.32 0 2 0 C1.34 4.29 0.68 8.58 0 13 C-0.33 13 -0.66 13 -1 13 C-2.0070238 7.96488101 -1.97387813 4.76052962 0 0 Z " fill="#2B8AC0" transform="translate(647,282)"/>
<path d="M0 0 C0.763125 0.20625 1.52625 0.4125 2.3125 0.625 C1.3225 1.12 1.3225 1.12 0.3125 1.625 C-0.0175 2.285 -0.3475 2.945 -0.6875 3.625 C-3.33610427 4.21855614 -5.97947322 4.36709269 -8.6875 4.625 C-3.77052239 -0.5261194 -3.77052239 -0.5261194 0 0 Z " fill="#1383C0" transform="translate(746.6875,824.375)"/>
<path d="M0 0 C0 3.78385914 -0.45331643 5.42018409 -3.0625 8.1875 C-4.0215625 9.0846875 -4.0215625 9.0846875 -5 10 C-5.66 9.67 -6.32 9.34 -7 9 C-4.69 6.03 -2.38 3.06 0 0 Z " fill="#1379B6" transform="translate(620,284)"/>
<path d="M0 0 C0 4.38968456 -2.12805101 5.76905739 -5 9 C-5 5.74188938 -4.4477922 3.89558441 -3 1 C-2.01 0.67 -1.02 0.34 0 0 Z " fill="#0A7DBE" transform="translate(527,216)"/>
<path d="M0 0 C2.4375 0.625 2.4375 0.625 5 2 C5.8125 5.125 5.8125 5.125 6 8 C1.125 3.375 1.125 3.375 0 0 Z " fill="#107EBE" transform="translate(769,675)"/>
<path d="M0 0 C0.99 0 1.98 0 3 0 C3 0.99 3 1.98 3 3 C0.6875 4.125 0.6875 4.125 -2 5 C-2.99 4.34 -3.98 3.68 -5 3 C-4.360625 2.87625 -3.72125 2.7525 -3.0625 2.625 C-2.0415625 2.315625 -2.0415625 2.315625 -1 2 C-0.67 1.34 -0.34 0.68 0 0 Z " fill="#E8F1EF" transform="translate(495,643)"/>
<path d="M0 0 C0.33 1.32 0.66 2.64 1 4 C-0.32 4.99 -1.64 5.98 -3 7 C-3.33 5.68 -3.66 4.36 -4 3 C-2.68 2.67 -1.36 2.34 0 2 C0 1.34 0 0.68 0 0 Z " fill="#0B83C5" transform="translate(532,208)"/>
<path d="M0 0 C1 3 1 3 1 7 C0.34 7 -0.32 7 -1 7 C-1.33 8.65 -1.66 10.3 -2 12 C-3.12377697 8.69564916 -2.89554742 6.9493138 -1.5625 3.75 C-1.27503906 3.04359375 -0.98757813 2.3371875 -0.69140625 1.609375 C-0.46324219 1.07828125 -0.23507812 0.5471875 0 0 Z " fill="#1076B1" transform="translate(612,156)"/>
<path d="M0 0 C1.32 0 2.64 0 4 0 C4 0.99 4 1.98 4 3 C4.66 3.33 5.32 3.66 6 4 C4.125 4.625 4.125 4.625 2 5 C1.34 4.34 0.68 3.68 0 3 C0 2.01 0 1.02 0 0 Z " fill="#0A84C4" transform="translate(412,768)"/>
<path d="M0 0 C-2.97 1.32 -5.94 2.64 -9 4 C-6.37789678 -1.24420645 -5.61031397 -1.40257849 0 0 Z " fill="#DEF2F5" transform="translate(662,546)"/>
</svg>
